{
	"patcher" : 	{
		"fileversion" : 1,
		"appversion" : 		{
			"major" : 8,
			"minor" : 5,
			"revision" : 3,
			"architecture" : "x64",
			"modernui" : 1
		}
,
		"classnamespace" : "box",
		"rect" : [ 34.0, 62.0, 2492.0, 1344.0 ],
		"bglocked" : 0,
		"openinpresentation" : 0,
		"default_fontsize" : 12.0,
		"default_fontface" : 0,
		"default_fontname" : "Arial",
		"gridonopen" : 1,
		"gridsize" : [ 15.0, 15.0 ],
		"gridsnaponopen" : 1,
		"objectsnaponopen" : 1,
		"statusbarvisible" : 2,
		"toolbarvisible" : 1,
		"lefttoolbarpinned" : 0,
		"toptoolbarpinned" : 0,
		"righttoolbarpinned" : 0,
		"bottomtoolbarpinned" : 0,
		"toolbars_unpinned_last_save" : 0,
		"tallnewobj" : 0,
		"boxanimatetime" : 200,
		"enablehscroll" : 1,
		"enablevscroll" : 1,
		"devicewidth" : 0.0,
		"description" : "",
		"digest" : "",
		"tags" : "",
		"style" : "red_and_black-1",
		"subpatcher_template" : "",
		"assistshowspatchername" : 0,
		"boxes" : [ 			{
				"box" : 				{
					"autosave" : 1,
					"bgmode" : 0,
					"border" : 0,
					"clickthrough" : 0,
					"id" : "obj-38",
					"maxclass" : "newobj",
					"numinlets" : 2,
					"numoutlets" : 8,
					"offset" : [ 0.0, 0.0 ],
					"outlettype" : [ "signal", "signal", "", "list", "int", "", "", "" ],
					"patching_rect" : [ 1016.0, 715.0, 656.0, 138.0 ],
					"save" : [ "#N", "vst~", "loaduniqueid", 0, "C74_VST3:/ValhallaSupermassive", ";" ],
					"saved_attribute_attributes" : 					{
						"valueof" : 						{
							"parameter_invisible" : 1,
							"parameter_longname" : "vst~",
							"parameter_shortname" : "vst~",
							"parameter_type" : 3
						}

					}
,
					"saved_object_attributes" : 					{
						"parameter_enable" : 1,
						"parameter_mappable" : 0
					}
,
					"snapshot" : 					{
						"filetype" : "C74Snapshot",
						"version" : 2,
						"minorversion" : 0,
						"name" : "snapshotlist",
						"origin" : "vst~",
						"type" : "list",
						"subtype" : "Undefined",
						"embed" : 1,
						"snapshot" : 						{
							"pluginname" : "ValhallaSupermassive.vst3info",
							"plugindisplayname" : "ValhallaSupermassive",
							"pluginsavedname" : "C74_VST3:/ValhallaSupermassive",
							"pluginsaveduniqueid" : 0,
							"version" : 1,
							"isbank" : 0,
							"isbase64" : 1,
							"sliderorder" : [  ],
							"slidervisibility" : [ 1, 1, 1, 1, 1, 1, 1, 1, 1, 1, 1, 1, 1, 1, 1, 1, 1, 1, 1 ],
							"blob" : "1167.VMjLgXHA...OVMEUy.Ea0cVZtMEcgQWY9vSRC8Vav8lak4Fc9fiLv3hUMczXWEjKt3hYt3hKt.kKt3hKt3BS5gEcyQjKtvjKGYTR5AkaA4hKtfjch0TQwHlKDAUPt3hKt3hKt3hKt3hKt3hKt3hKt3hKt3hKt3hKt3hKt3hKt3hKt3hKt3hKt3hKt3hKt3hKt3hKt3hKt3hKt3hKt3hKt3hKt3hKt3hKt3hKt3hKt3hKt3hKt3hKt3hKt3hKt3hKt3hKt3hKt3hKt3hKt3hKt3hKt3hKt3hKt3hKt3hKt3hKt3hKt3hKt3hKt3hKt3hKt3hKt3hKt3hKt3hKt3hKt3hKt3hKt3hKt3hKt3hKt3hKBAkaUMTRSgzJH4hKtXWdOMCLFElYXcUV30zUZUGMV8DZDk1R1gjPHsFMwfUcQYkVzMlUOgFUEUkQvHjSncSZOYlcoU0Y2YjVmcmQgcVSUMlcUwlXyUTLhk2ZrM1ZAIjXxUkLY8FMrU0ZIIiXugCaggCRRwDcTk1R1gjPHYWRWkUdUYzXNUjUgsFLogjQqwVXmcGaQgGNrEldqYUV3kjPH0zZFQFNHIDSzgzPLIiYC0DMXMkSwfTdMMCU40DdDkFRlAEUYIWQVQ1Tq0VXoASZHY2LnwDLHIDRDUkQgc1ZsMUcQcUV3fjPLQGRC4DLhMES5gzTNMCTC4TLhMDSzfUZHYFTTkkbEYEYkAidhgCRBwDchkFS14xPLYmKowzLXMES1gTZLQCUogjYPQUVxUjUjcUQrIlcvjFR1MCdMICVCwjctLDS3gzPNMiYSwzLLkVSn4BdPIWUVgEdvjFR2MiPLglKnE0ZUYTVnUTLXEGLogjcyfWSzPzTNQiZS4DMTkWS1Y1PMECUo0DZtHTTqQSLh8VTWQFNHIDSzA0TNAiZS4DMpMkS2Y1TNkmXo0zLLkFRlIVUZoVTGoENHIESz4RZHYlc5ElLMQ0X5ASZHY2LBwTLlMDS14xPLYGSo0DMTMTSyH1TNMCRBgDRqESVt0DUioGLogjcyfVSxPzTNQiZS4DMtLkS54xPLQCTogjY5oWXpkTUXoWUV8DZtj1R2IVdLQiZS4DMpMTSznVdLgmKS4zLHIDRMgiQYQTUFIldmY0Sn4RZKICUS0DMpMkSzXVZLkGU40jcHMUS2gjPH0DNFk0ZvjFR1MCZLYmY4wTdLkGS3YVdLECVowjLpkVSn4BZTsVSWkEdYcUVpUzTOglKosjcHIDRRUULhsVRsM1ZQwFS3fjPLQmKogjYHUUV4UEahESUFkUd5kFR1MiPLglKnQ0ZMcUV3k0UYoVTS8DZtj1R1gjPHM2ZFQFS3DCVwASZHYGRBgDLqESUuEkQi4FLogzLHMDSn4hTi81YTk0aiYjV5ASZHoGSS0DZ2f1St3hKt3hKt3hKt3hKJUELPUTPqI1aYcEV5UkQQcVTWgkKDAkKBs1QhcVSxHlKDAkKC4BTG4hKt3hKt3hKt3FUUMTUDQEdqw1XmE0UYQTQFM1YAwyKIMzasA2atUlaz4COuX0TTMCTrU2Yo41TzEFck4C."
						}
,
						"snapshotlist" : 						{
							"current_snapshot" : 0,
							"entries" : [ 								{
									"filetype" : "C74Snapshot",
									"version" : 2,
									"minorversion" : 0,
									"name" : "ValhallaSupermassive",
									"origin" : "ValhallaSupermassive.vst3info",
									"type" : "VST3",
									"subtype" : "AudioEffect",
									"embed" : 0,
									"snapshot" : 									{
										"pluginname" : "ValhallaSupermassive.vst3info",
										"plugindisplayname" : "ValhallaSupermassive",
										"pluginsavedname" : "C74_VST3:/ValhallaSupermassive",
										"pluginsaveduniqueid" : 0,
										"version" : 1,
										"isbank" : 0,
										"isbase64" : 1,
										"sliderorder" : [  ],
										"slidervisibility" : [ 1, 1, 1, 1, 1, 1, 1, 1, 1, 1, 1, 1, 1, 1, 1, 1, 1, 1, 1 ],
										"blob" : "1167.VMjLgXHA...OVMEUy.Ea0cVZtMEcgQWY9vSRC8Vav8lak4Fc9fiLv3hUMczXWEjKt3hYt3hKt.kKt3hKt3BS5gEcyQjKtvjKGYTR5AkaA4hKtfjch0TQwHlKDAUPt3hKt3hKt3hKt3hKt3hKt3hKt3hKt3hKt3hKt3hKt3hKt3hKt3hKt3hKt3hKt3hKt3hKt3hKt3hKt3hKt3hKt3hKt3hKt3hKt3hKt3hKt3hKt3hKt3hKt3hKt3hKt3hKt3hKt3hKt3hKt3hKt3hKt3hKt3hKt3hKt3hKt3hKt3hKt3hKt3hKt3hKt3hKt3hKt3hKt3hKt3hKt3hKt3hKt3hKt3hKt3hKt3hKt3hKt3hKt3hKBAkaUMTRSgzJH4hKtXWdOMCLFElYXcUV30zUZUGMV8DZDk1R1gjPHsFMwfUcQYkVzMlUOgFUEUkQvHjSncSZOYlcoU0Y2YjVmcmQgcVSUMlcUwlXyUTLhk2ZrM1ZAIjXxUkLY8FMrU0ZIIiXugCaggCRRwDcTk1R1gjPHYWRWkUdUYzXNUjUgsFLogjQqwVXmcGaQgGNrEldqYUV3kjPH0zZFQFNHIDSzgzPLIiYC0DMXMkSwfTdMMCU40DdDkFRlAEUYIWQVQ1Tq0VXoASZHY2LnwDLHIDRDUkQgc1ZsMUcQcUV3fjPLQGRC4DLhMES5gzTNMCTC4TLhMDSzfUZHYFTTkkbEYEYkAidhgCRBwDchkFS14xPLYmKowzLXMES1gTZLQCUogjYPQUVxUjUjcUQrIlcvjFR1MCdMICVCwjctLDS3gzPNMiYSwzLLkVSn4BdPIWUVgEdvjFR2MiPLglKnE0ZUYTVnUTLXEGLogjcyfWSzPzTNQiZS4DMTkWS1Y1PMECUo0DZtHTTqQSLh8VTWQFNHIDSzA0TNAiZS4DMpMkS2Y1TNkmXo0zLLkFRlIVUZoVTGoENHIESz4RZHYlc5ElLMQ0X5ASZHY2LBwTLlMDS14xPLYGSo0DMTMTSyH1TNMCRBgDRqESVt0DUioGLogjcyfVSxPzTNQiZS4DMtLkS54xPLQCTogjY5oWXpkTUXoWUV8DZtj1R2IVdLQiZS4DMpMTSznVdLgmKS4zLHIDRMgiQYQTUFIldmY0Sn4RZKICUS0DMpMkSzXVZLkGU40jcHMUS2gjPH0DNFk0ZvjFR1MCZLYmY4wTdLkGS3YVdLECVowjLpkVSn4BZTsVSWkEdYcUVpUzTOglKosjcHIDRRUULhsVRsM1ZQwFS3fjPLQmKogjYHUUV4UEahESUFkUd5kFR1MiPLglKnQ0ZMcUV3k0UYoVTS8DZtj1R1gjPHM2ZFQFS3DCVwASZHYGRBgDLqESUuEkQi4FLogzLHMDSn4hTi81YTk0aiYjV5ASZHoGSS0DZ2f1St3hKt3hKt3hKt3hKJUELPUTPqI1aYcEV5UkQQcVTWgkKDAkKBs1QhcVSxHlKDAkKC4BTG4hKt3hKt3hKt3FUUMTUDQEdqw1XmE0UYQTQFM1YAwyKIMzasA2atUlaz4COuX0TTMCTrU2Yo41TzEFck4C."
									}
,
									"fileref" : 									{
										"name" : "ValhallaSupermassive",
										"filename" : "ValhallaSupermassive.maxsnap",
										"filepath" : "~/Documents/Max 8/Snapshots",
										"filepos" : -1,
										"snapshotfileid" : "bc7e36f17470d8fa9dd93e00370c3aa7"
									}

								}
 ]
						}

					}
,
					"text" : "vst~ C74_VST3:/ValhallaSupermassive",
					"varname" : "vst~",
					"viewvisibility" : 1
				}

			}
, 			{
				"box" : 				{
					"id" : "obj-37",
					"maxclass" : "newobj",
					"numinlets" : 2,
					"numoutlets" : 2,
					"outlettype" : [ "signal", "signal" ],
					"patching_rect" : [ 1033.0, 944.0, 56.0, 22.0 ],
					"text" : "limi~ 2"
				}

			}
, 			{
				"box" : 				{
					"id" : "obj-33",
					"lastchannelcount" : 0,
					"maxclass" : "live.gain~",
					"numinlets" : 2,
					"numoutlets" : 5,
					"outlettype" : [ "signal", "signal", "", "float", "list" ],
					"parameter_enable" : 1,
					"patching_rect" : [ 1016.0, 503.0, 48.0, 136.0 ],
					"saved_attribute_attributes" : 					{
						"valueof" : 						{
							"parameter_longname" : "live.gain~[1]",
							"parameter_mmax" : 6.0,
							"parameter_mmin" : -70.0,
							"parameter_shortname" : "live.gain~[1]",
							"parameter_type" : 0,
							"parameter_unitstyle" : 4
						}

					}
,
					"varname" : "live.gain~[1]"
				}

			}
, 			{
				"box" : 				{
					"id" : "obj-32",
					"maxclass" : "newobj",
					"numinlets" : 1,
					"numoutlets" : 1,
					"outlettype" : [ "signal" ],
					"patching_rect" : [ 1011.0, 354.0, 100.0, 22.0 ],
					"text" : "sig~"
				}

			}
, 			{
				"box" : 				{
					"format" : 6,
					"id" : "obj-31",
					"maxclass" : "flonum",
					"numinlets" : 1,
					"numoutlets" : 2,
					"outlettype" : [ "", "bang" ],
					"parameter_enable" : 0,
					"patching_rect" : [ 1011.0, 319.0, 50.0, 22.0 ]
				}

			}
, 			{
				"box" : 				{
					"id" : "obj-34",
					"maxclass" : "newobj",
					"numinlets" : 3,
					"numoutlets" : 1,
					"outlettype" : [ "signal" ],
					"patching_rect" : [ 1011.0, 402.5, 145.0, 22.0 ],
					"text" : "pfft~ pfft_playback 512 4"
				}

			}
, 			{
				"box" : 				{
					"id" : "obj-27",
					"maxclass" : "toggle",
					"numinlets" : 1,
					"numoutlets" : 1,
					"outlettype" : [ "int" ],
					"parameter_enable" : 0,
					"patching_rect" : [ 868.0, 222.0, 24.0, 24.0 ]
				}

			}
, 			{
				"box" : 				{
					"id" : "obj-25",
					"linecount" : 2,
					"maxclass" : "newobj",
					"numinlets" : 1,
					"numoutlets" : 2,
					"outlettype" : [ "jit_matrix", "" ],
					"patching_rect" : [ 652.0, 479.0, 100.0, 35.0 ],
					"text" : "jit.dimmap @invert 0 1"
				}

			}
, 			{
				"box" : 				{
					"id" : "obj-24",
					"maxclass" : "newobj",
					"numinlets" : 1,
					"numoutlets" : 3,
					"outlettype" : [ "jit_matrix", "jit_matrix", "" ],
					"patching_rect" : [ 649.0, 416.0, 100.0, 22.0 ],
					"text" : "jit.unpack 2"
				}

			}
, 			{
				"box" : 				{
					"id" : "obj-23",
					"maxclass" : "toggle",
					"numinlets" : 1,
					"numoutlets" : 1,
					"outlettype" : [ "int" ],
					"parameter_enable" : 0,
					"patching_rect" : [ 777.0, 222.0, 24.0, 24.0 ]
				}

			}
, 			{
				"box" : 				{
					"id" : "obj-21",
					"maxclass" : "newobj",
					"numinlets" : 2,
					"numoutlets" : 1,
					"outlettype" : [ "bang" ],
					"patching_rect" : [ 777.0, 262.0, 58.0, 22.0 ],
					"text" : "metro 33"
				}

			}
, 			{
				"box" : 				{
					"id" : "obj-16",
					"maxclass" : "number",
					"numinlets" : 1,
					"numoutlets" : 2,
					"outlettype" : [ "", "bang" ],
					"parameter_enable" : 0,
					"patching_rect" : [ 686.0, 262.0, 50.0, 22.0 ]
				}

			}
, 			{
				"box" : 				{
					"id" : "obj-11",
					"maxclass" : "jit.pwindow",
					"numinlets" : 1,
					"numoutlets" : 2,
					"outlettype" : [ "jit_matrix", "" ],
					"patching_rect" : [ 652.0, 559.0, 308.0, 242.0 ],
					"sync" : 1
				}

			}
, 			{
				"box" : 				{
					"id" : "obj-10",
					"maxclass" : "newobj",
					"numinlets" : 4,
					"numoutlets" : 1,
					"outlettype" : [ "" ],
					"patching_rect" : [ 595.0, 301.0, 292.0, 22.0 ],
					"text" : "pfft~ pfft_patch 512 4"
				}

			}
, 			{
				"box" : 				{
					"id" : "obj-9",
					"maxclass" : "ezdac~",
					"numinlets" : 2,
					"numoutlets" : 0,
					"patching_rect" : [ 349.0, 899.0, 45.0, 45.0 ]
				}

			}
, 			{
				"box" : 				{
					"basictuning" : 440,
					"data" : 					{
						"clips" : [ 							{
								"absolutepath" : "sacre.aiff",
								"filename" : "sacre.aiff",
								"filekind" : "audiofile",
								"id" : "u553009648",
								"loop" : 1,
								"content_state" : 								{
									"loop" : 1
								}

							}
 ]
					}
,
					"followglobaltempo" : 0,
					"formantcorrection" : 0,
					"id" : "obj-8",
					"maxclass" : "playlist~",
					"mode" : "basic",
					"numinlets" : 1,
					"numoutlets" : 5,
					"originallength" : [ 0.0, "ticks" ],
					"originaltempo" : 120.0,
					"outlettype" : [ "signal", "signal", "signal", "", "dictionary" ],
					"parameter_enable" : 0,
					"patching_rect" : [ 349.0, 131.0, 150.0, 30.0 ],
					"pitchcorrection" : 0,
					"quality" : "basic",
					"timestretch" : [ 0 ]
				}

			}
, 			{
				"box" : 				{
					"id" : "obj-5",
					"lastchannelcount" : 0,
					"maxclass" : "live.gain~",
					"numinlets" : 2,
					"numoutlets" : 5,
					"outlettype" : [ "signal", "signal", "", "float", "list" ],
					"parameter_enable" : 1,
					"patching_rect" : [ 349.0, 194.0, 48.0, 136.0 ],
					"saved_attribute_attributes" : 					{
						"valueof" : 						{
							"parameter_longname" : "live.gain~",
							"parameter_mmax" : 6.0,
							"parameter_mmin" : -70.0,
							"parameter_shortname" : "live.gain~",
							"parameter_type" : 0,
							"parameter_unitstyle" : 4
						}

					}
,
					"varname" : "live.gain~"
				}

			}
, 			{
				"box" : 				{
					"id" : "obj-4",
					"maxclass" : "newobj",
					"numinlets" : 2,
					"numoutlets" : 2,
					"outlettype" : [ "signal", "signal" ],
					"patching_rect" : [ 349.0, 366.0, 100.0, 22.0 ],
					"text" : "limi~ 2"
				}

			}
 ],
		"lines" : [ 			{
				"patchline" : 				{
					"destination" : [ "obj-24", 0 ],
					"order" : 1,
					"source" : [ "obj-10", 0 ]
				}

			}
, 			{
				"patchline" : 				{
					"destination" : [ "obj-34", 1 ],
					"order" : 0,
					"source" : [ "obj-10", 0 ]
				}

			}
, 			{
				"patchline" : 				{
					"destination" : [ "obj-10", 1 ],
					"order" : 1,
					"source" : [ "obj-16", 0 ]
				}

			}
, 			{
				"patchline" : 				{
					"destination" : [ "obj-34", 2 ],
					"order" : 0,
					"source" : [ "obj-16", 0 ]
				}

			}
, 			{
				"patchline" : 				{
					"destination" : [ "obj-10", 2 ],
					"source" : [ "obj-21", 0 ]
				}

			}
, 			{
				"patchline" : 				{
					"destination" : [ "obj-21", 0 ],
					"source" : [ "obj-23", 0 ]
				}

			}
, 			{
				"patchline" : 				{
					"destination" : [ "obj-25", 0 ],
					"source" : [ "obj-24", 0 ]
				}

			}
, 			{
				"patchline" : 				{
					"destination" : [ "obj-11", 0 ],
					"source" : [ "obj-25", 0 ]
				}

			}
, 			{
				"patchline" : 				{
					"destination" : [ "obj-10", 3 ],
					"source" : [ "obj-27", 0 ]
				}

			}
, 			{
				"patchline" : 				{
					"destination" : [ "obj-32", 0 ],
					"source" : [ "obj-31", 0 ]
				}

			}
, 			{
				"patchline" : 				{
					"destination" : [ "obj-34", 0 ],
					"source" : [ "obj-32", 0 ]
				}

			}
, 			{
				"patchline" : 				{
					"destination" : [ "obj-38", 1 ],
					"source" : [ "obj-33", 1 ]
				}

			}
, 			{
				"patchline" : 				{
					"destination" : [ "obj-38", 0 ],
					"source" : [ "obj-33", 0 ]
				}

			}
, 			{
				"patchline" : 				{
					"destination" : [ "obj-33", 1 ],
					"order" : 0,
					"source" : [ "obj-34", 0 ]
				}

			}
, 			{
				"patchline" : 				{
					"destination" : [ "obj-33", 0 ],
					"order" : 1,
					"source" : [ "obj-34", 0 ]
				}

			}
, 			{
				"patchline" : 				{
					"destination" : [ "obj-9", 1 ],
					"source" : [ "obj-37", 1 ]
				}

			}
, 			{
				"patchline" : 				{
					"destination" : [ "obj-9", 0 ],
					"source" : [ "obj-37", 0 ]
				}

			}
, 			{
				"patchline" : 				{
					"destination" : [ "obj-37", 1 ],
					"source" : [ "obj-38", 1 ]
				}

			}
, 			{
				"patchline" : 				{
					"destination" : [ "obj-37", 0 ],
					"source" : [ "obj-38", 0 ]
				}

			}
, 			{
				"patchline" : 				{
					"destination" : [ "obj-9", 1 ],
					"source" : [ "obj-4", 1 ]
				}

			}
, 			{
				"patchline" : 				{
					"destination" : [ "obj-9", 0 ],
					"source" : [ "obj-4", 0 ]
				}

			}
, 			{
				"patchline" : 				{
					"destination" : [ "obj-4", 1 ],
					"source" : [ "obj-5", 1 ]
				}

			}
, 			{
				"patchline" : 				{
					"destination" : [ "obj-4", 0 ],
					"source" : [ "obj-5", 0 ]
				}

			}
, 			{
				"patchline" : 				{
					"destination" : [ "obj-10", 0 ],
					"order" : 0,
					"source" : [ "obj-8", 0 ]
				}

			}
, 			{
				"patchline" : 				{
					"destination" : [ "obj-5", 1 ],
					"order" : 1,
					"source" : [ "obj-8", 0 ]
				}

			}
, 			{
				"patchline" : 				{
					"destination" : [ "obj-5", 0 ],
					"order" : 2,
					"source" : [ "obj-8", 0 ]
				}

			}
 ],
		"parameters" : 		{
			"obj-33" : [ "live.gain~[1]", "live.gain~[1]", 0 ],
			"obj-38" : [ "vst~", "vst~", 0 ],
			"obj-5" : [ "live.gain~", "live.gain~", 0 ],
			"parameterbanks" : 			{
				"0" : 				{
					"index" : 0,
					"name" : "",
					"parameters" : [ "-", "-", "-", "-", "-", "-", "-", "-" ]
				}

			}
,
			"inherited_shortname" : 1
		}
,
		"dependency_cache" : [ 			{
				"name" : "ValhallaSupermassive.maxsnap",
				"bootpath" : "~/Documents/Max 8/Snapshots",
				"patcherrelativepath" : "../../../Snapshots",
				"type" : "mx@s",
				"implicit" : 1
			}
, 			{
				"name" : "pfft_patch.maxpat",
				"bootpath" : "~/Documents/Max 8/personal/Patches/spectral_freeze",
				"patcherrelativepath" : ".",
				"type" : "JSON",
				"implicit" : 1
			}
, 			{
				"name" : "pfft_playback.maxpat",
				"bootpath" : "~/Documents/Max 8/personal/Patches/spectral_freeze",
				"patcherrelativepath" : ".",
				"type" : "JSON",
				"implicit" : 1
			}
, 			{
				"name" : "sacre.aiff",
				"bootpath" : "C74:/docs/tutorial-patchers/msp-tut",
				"type" : "AIFF",
				"implicit" : 1
			}
 ],
		"autosave" : 0,
		"styles" : [ 			{
				"name" : "red_and_black-1",
				"default" : 				{
					"accentcolor" : [ 0.427450980392157, 0.125490196078431, 0.125490196078431, 1.0 ],
					"bgcolor" : [ 0.0, 0.0, 0.0, 1.0 ],
					"bgfillcolor" : 					{
						"angle" : 270.0,
						"autogradient" : 0.0,
						"color" : [ 0.0, 0.0, 0.0, 1.0 ],
						"color1" : [ 0.0, 0.0, 0.0, 1.0 ],
						"color2" : [ 0.2, 0.2, 0.2, 1.0 ],
						"proportion" : 0.5,
						"type" : "gradient"
					}
,
					"clearcolor" : [ 0.686274509803922, 0.686274509803922, 0.686274509803922, 0.0 ],
					"color" : [ 0.427450980392157, 0.125490196078431, 0.125490196078431, 1.0 ],
					"editing_bgcolor" : [ 0.054901960784314, 0.054901960784314, 0.054901960784314, 1.0 ],
					"locked_bgcolor" : [ 0.109803921568627, 0.109803921568627, 0.109803921568627, 1.0 ],
					"patchlinecolor" : [ 0.352941176470588, 0.0, 0.0, 1.0 ],
					"selectioncolor" : [ 0.623529411764706, 0.631372549019608, 0.16078431372549, 1.0 ],
					"stripecolor" : [ 0.482352941176471, 0.113725490196078, 0.113725490196078, 1.0 ],
					"textcolor" : [ 1.0, 1.0, 1.0, 1.0 ],
					"textcolor_inverse" : [ 1.0, 1.0, 1.0, 1.0 ]
				}
,
				"parentstyle" : "",
				"multi" : 0
			}
 ]
	}

}
